<svg id="Layer_1" data-name="Layer 1" xmlns="http://www.w3.org/2000/svg" viewBox="0 0 709.27 594.41"><defs><style>.cls-1{fill:#6d7a81;}.cls-2{fill:#949fa6;}.cls-3{fill:#c4cdd3;}.cls-4{fill:#f37a3c;}.cls-5{fill:#f68b50;}.cls-6{fill:#f15a22;}</style></defs><title>logo-brcondos</title><polygon class="cls-1" points="607.79 126.61 582.46 139.27 582.46 113.96 481.17 63.31 455.85 75.96 455.85 50.64 354.55 0 253.26 50.64 253.26 75.97 227.94 63.31 126.64 113.96 126.64 139.28 101.3 126.61 0 177.26 0 303.86 101.3 354.52 126.64 341.87 126.64 367.17 227.94 417.83 253.26 405.18 253.26 430.47 354.55 481.14 455.85 430.47 455.85 405.18 481.17 417.83 582.46 367.17 582.46 341.87 607.79 354.52 709.09 303.86 709.09 177.26 607.79 126.61"/><polygon class="cls-2" points="253.26 50.64 354.56 0 455.85 50.64 354.56 101.29 253.26 50.64"/><polygon class="cls-2" points="126.64 113.96 227.94 63.31 329.23 113.96 227.94 164.6 126.64 113.96"/><polygon class="cls-2" points="0.02 177.25 101.31 126.61 202.61 177.25 101.31 227.91 0.02 177.25"/><polygon class="cls-2" points="379.88 113.96 481.17 63.31 582.46 113.96 481.17 164.6 379.88 113.96"/><polygon class="cls-2" points="126.64 240.57 227.94 189.91 329.23 240.57 227.94 291.2 126.64 240.57"/><polygon class="cls-2" points="506.49 177.25 607.79 126.61 709.1 177.25 607.79 227.91 506.49 177.25"/><polygon class="cls-2" points="379.88 240.57 481.17 189.91 582.46 240.57 481.17 291.2 379.88 240.57"/><polygon class="cls-2" points="253.26 303.86 354.56 253.23 455.85 303.86 354.56 354.52 253.26 303.86"/><polygon class="cls-3" points="709.1 177.25 709.1 303.86 607.79 354.52 607.79 227.91 709.1 177.25"/><polygon class="cls-3" points="582.46 240.57 582.46 367.17 481.17 417.83 481.17 291.2 582.46 240.57"/><polygon class="cls-3" points="455.85 303.86 455.85 430.47 354.56 481.14 354.56 354.52 455.85 303.86"/><polygon class="cls-3" points="253.26 303.86 329.23 265.88 329.23 240.57 227.94 291.2 227.94 417.83 253.26 405.18 253.26 303.86"/><polygon class="cls-3" points="126.64 240.57 202.61 202.58 202.61 177.25 101.3 227.91 101.3 354.52 126.64 341.87 126.64 240.57"/><polygon class="cls-3" points="506.49 202.58 481.17 189.91 481.17 164.6 582.46 113.96 582.46 139.28 506.49 177.25 506.49 202.58"/><polygon class="cls-3" points="379.88 139.28 354.55 126.61 354.55 101.29 455.85 50.64 455.85 75.97 379.88 113.96 379.88 139.28"/><polygon class="cls-3" points="253.26 202.58 227.94 189.91 227.94 164.6 329.23 113.96 329.23 139.28 253.26 177.25 253.26 202.58"/><polygon class="cls-4" points="253.26 177.25 354.56 126.61 455.85 177.25 354.56 227.91 253.26 177.25"/><polygon class="cls-5" points="379.88 265.88 354.55 253.24 354.55 227.91 455.84 177.25 455.84 202.58 379.88 240.56 379.88 265.88"/><path class="cls-6" d="M322.7,691.34A22.7,22.7,0,0,1,320,702.62a23.52,23.52,0,0,1-7.32,8,34.78,34.78,0,0,1-10.88,4.79,51.4,51.4,0,0,1-13.1,1.63H239.94V616.89h55.69a19.62,19.62,0,0,1,9.43,2.26,23.1,23.1,0,0,1,7.21,5.87,26.67,26.67,0,0,1,4.58,8.15,28.19,28.19,0,0,1,1.62,9.39,26.8,26.8,0,0,1-3.6,13.53,22.64,22.64,0,0,1-10.78,9.59,26,26,0,0,1,13.61,9c3.31,4.35,5,9.9,5,16.66m-59.65-54.69v20.71h22.7a10.09,10.09,0,0,0,6.77-2.54c2-1.71,3-4.34,3-7.9q0-4.94-2.62-7.6a8.35,8.35,0,0,0-6.26-2.68H263.05Zm36.09,50.05a12.06,12.06,0,0,0-2.66-7.91,8.44,8.44,0,0,0-6.79-3.24H263.05V697.4h25.67a10.1,10.1,0,0,0,7.45-3,10.42,10.42,0,0,0,3-7.75" transform="translate(-239.92 -123.45)"/><path class="cls-6" d="M325.32,717V616.89h45.15a29,29,0,0,1,13,2.94,35.42,35.42,0,0,1,10.37,7.76,36.8,36.8,0,0,1,6.84,10.86,32.3,32.3,0,0,1,2.45,12.27,35.68,35.68,0,0,1-4.36,17.07,29,29,0,0,1-5.16,6.83,30.85,30.85,0,0,1-6.81,5.16l23,37.22H383.71l-20.17-32.29h-15.1V717H325.32Zm23.12-52.47h21.18c2.71,0,5-1.27,7-3.86a16,16,0,0,0,3-10c0-4.13-1.14-7.42-3.39-9.87s-4.69-3.67-7.34-3.67H348.44v27.34Z" transform="translate(-239.92 -123.45)"/><path class="cls-6" d="M406.26,666.25a53.93,53.93,0,0,1,3.17-18,50.14,50.14,0,0,1,9.24-16,47.65,47.65,0,0,1,14.88-11.51,44.43,44.43,0,0,1,20.1-4.44c8.92,0,16.56,2.05,22.85,6.15a37.4,37.4,0,0,1,14,15.72l-5.92,3.38a31.51,31.51,0,0,0-6.13-8.75,32.82,32.82,0,0,0-7.78-5.7,34.06,34.06,0,0,0-8.66-3.19,42,42,0,0,0-8.87-1,35.72,35.72,0,0,0-16.94,3.9,40.47,40.47,0,0,0-12.42,10.06A43.77,43.77,0,0,0,416.07,651a48.91,48.91,0,0,0-2.61,15.7A47.56,47.56,0,0,0,425,697.75a40.67,40.67,0,0,0,12.7,9.82,34.59,34.59,0,0,0,15.8,3.67,40.18,40.18,0,0,0,9.24-1.13,37.29,37.29,0,0,0,17.42-9.66,33.53,33.53,0,0,0,6.35-8.81l6.06,2.93a34.3,34.3,0,0,1-6.85,10,41.42,41.42,0,0,1-9.66,7.33,46.5,46.5,0,0,1-11.35,4.45,48,48,0,0,1-11.79,1.49,39.83,39.83,0,0,1-18.82-4.51,49.93,49.93,0,0,1-14.73-11.79,55.07,55.07,0,0,1-9.67-16.5,53.65,53.65,0,0,1-3.45-18.82" transform="translate(-239.92 -123.45)"/><path class="cls-6" d="M539.37,717.71a41.67,41.67,0,0,1-19-4.36,49.52,49.52,0,0,1-14.81-11.43,51,51,0,0,1-9.59-16.21,53.88,53.88,0,0,1-3.4-18.77,52.17,52.17,0,0,1,3.61-19.19A53.26,53.26,0,0,1,506,631.56a47.14,47.14,0,0,1,14.87-11.23,42.19,42.19,0,0,1,18.62-4.15,40.66,40.66,0,0,1,19,4.45,48.17,48.17,0,0,1,14.73,11.64,53.31,53.31,0,0,1,9.53,16.28,53,53,0,0,1-10.1,53.87,47.57,47.57,0,0,1-14.78,11.15,41.84,41.84,0,0,1-18.57,4.16m-39.61-50.76a48.36,48.36,0,0,0,2.89,16.58,45,45,0,0,0,8.17,14.09,41,41,0,0,0,12.57,9.81,36.9,36.9,0,0,0,32.3-.13,41.12,41.12,0,0,0,12.48-10.1,46.93,46.93,0,0,0,8-14.17,47.34,47.34,0,0,0-.17-32.66,45.93,45.93,0,0,0-8.23-14.09,40.82,40.82,0,0,0-12.56-9.82,36.62,36.62,0,0,0-32.23.17,39.75,39.75,0,0,0-12.47,10.08,48.24,48.24,0,0,0-10.78,30.25" transform="translate(-239.92 -123.45)"/><polygon class="cls-6" points="362.92 506.97 362.92 593.55 355.7 593.55 355.7 493.44 361.22 493.44 431.46 581.59 431.46 493.56 438.64 493.56 438.64 593.55 432.04 593.55 362.92 506.97"/><path class="cls-6" d="M694.51,717V616.89h33.29a51.28,51.28,0,0,1,20.79,3.93,41.75,41.75,0,0,1,14.87,10.73,44.67,44.67,0,0,1,8.9,15.87,62.15,62.15,0,0,1,2.94,19.38,61.23,61.23,0,0,1-3.3,20.67,44.91,44.91,0,0,1-9.55,15.8,42.27,42.27,0,0,1-15,10.13,51.69,51.69,0,0,1-19.67,3.6H694.51Zm73.62-50.2a54.66,54.66,0,0,0-2.69-17.41,39.57,39.57,0,0,0-7.82-13.75,35.41,35.41,0,0,0-12.63-9,42.87,42.87,0,0,0-17.2-3.24H701.68v87.13h26.11a43.5,43.5,0,0,0,17.41-3.3A34.8,34.8,0,0,0,757.82,698a40.63,40.63,0,0,0,7.7-13.89,55.54,55.54,0,0,0,2.61-17.28" transform="translate(-239.92 -123.45)"/><path class="cls-6" d="M825.51,717.71a41.58,41.58,0,0,1-19-4.36,49,49,0,0,1-14.8-11.43,51.88,51.88,0,0,1-9.62-16.21,54.62,54.62,0,0,1-3.37-18.77,52,52,0,0,1,3.6-19.19,54.37,54.37,0,0,1,9.85-16.21A47.52,47.52,0,0,1,807,620.33a42.21,42.21,0,0,1,18.63-4.15,40.6,40.6,0,0,1,19,4.45,48.19,48.19,0,0,1,14.74,11.64,53.4,53.4,0,0,1,9.5,16.28,52.28,52.28,0,0,1-.19,37.7,52.63,52.63,0,0,1-9.87,16.16,48.46,48.46,0,0,1-14.81,11.15,41.78,41.78,0,0,1-18.55,4.16m-39.62-50.76a48.36,48.36,0,0,0,2.89,16.58A44.73,44.73,0,0,0,797,697.61a40.18,40.18,0,0,0,12.55,9.81,36.89,36.89,0,0,0,32.3-.13,41,41,0,0,0,12.48-10.1,45.54,45.54,0,0,0,8-14.17,47.39,47.39,0,0,0-.15-32.66,45.8,45.8,0,0,0-8.24-14.09,40.68,40.68,0,0,0-12.55-9.82,36.57,36.57,0,0,0-32.2.17A39,39,0,0,0,796.7,636.7a46.87,46.87,0,0,0-8,14.17,48.37,48.37,0,0,0-2.81,16.07" transform="translate(-239.92 -123.45)"/><path class="cls-6" d="M940.17,633.51c-6.47-7.24-15.67-10.86-27.51-10.86-9.76,0-16.9,1.86-21.35,5.58s-6.69,8.72-6.69,15a17.15,17.15,0,0,0,1.68,8,13.64,13.64,0,0,0,5.3,5.44,38.09,38.09,0,0,0,9.18,3.82c3.72,1.1,8.11,2.13,13.17,3.19,5.43,1.12,10.35,2.37,14.68,3.72a42.11,42.11,0,0,1,11.06,5.16,21.76,21.76,0,0,1,7,7.62,22.94,22.94,0,0,1,2.48,11.12,24.75,24.75,0,0,1-2.61,11.59,23.47,23.47,0,0,1-7.34,8.23,34.65,34.65,0,0,1-11.28,5,59.38,59.38,0,0,1-14.59,1.69q-23.42,0-39.63-14.94l3.81-5.81a45.87,45.87,0,0,0,15.52,10.51,52.32,52.32,0,0,0,20.6,3.89q13.11,0,20.51-4.82t7.41-14.52a17.39,17.39,0,0,0-1.9-8.4,17,17,0,0,0-5.87-6,40.71,40.71,0,0,0-9.8-4.39q-5.84-1.84-13.74-3.5c-5.36-1.13-10.08-2.35-14.16-3.62a37.49,37.49,0,0,1-10.39-4.79,18.92,18.92,0,0,1-6.33-7,22.27,22.27,0,0,1-2.12-10.29,26.39,26.39,0,0,1,2.61-12,25.83,25.83,0,0,1,7.26-8.84,33.18,33.18,0,0,1,11.11-5.4,52.67,52.67,0,0,1,14.4-1.84A49.6,49.6,0,0,1,930,619.06a41.06,41.06,0,0,1,13.81,8.83Z" transform="translate(-239.92 -123.45)"/><polygon class="cls-6" points="329.23 265.88 354.55 253.24 354.55 227.91 253.26 177.25 253.26 202.58 329.23 240.56 329.23 265.88"/></svg>