<?xml version="1.0" encoding="UTF-8" standalone="no"?>
<!-- Created with Inkscape (http://www.inkscape.org/) -->

<svg
   xmlns:dc="http://purl.org/dc/elements/1.1/"
   xmlns:cc="http://creativecommons.org/ns#"
   xmlns:rdf="http://www.w3.org/1999/02/22-rdf-syntax-ns#"
   xmlns:svg="http://www.w3.org/2000/svg"
   xmlns="http://www.w3.org/2000/svg"
   xmlns:sodipodi="http://sodipodi.sourceforge.net/DTD/sodipodi-0.dtd"
   xmlns:inkscape="http://www.inkscape.org/namespaces/inkscape"
   width="67.73333mm"
   height="68.304848mm"
   viewBox="0 0 67.73333 68.304848"
   version="1.1"
   id="svg8"
   inkscape:version="0.92.2 (5c3e80d, 2017-08-06)"
   sodipodi:docname="casan.svg">
  <defs
     id="defs2" />
  <sodipodi:namedview
     id="base"
     pagecolor="#ffffff"
     bordercolor="#666666"
     borderopacity="1.0"
     inkscape:pageopacity="0.0"
     inkscape:pageshadow="2"
     inkscape:zoom="0.83562009"
     inkscape:cx="-247.86101"
     inkscape:cy="335.01033"
     inkscape:document-units="mm"
     inkscape:current-layer="Layer1000"
     showgrid="false"
     inkscape:window-width="1920"
     inkscape:window-height="1137"
     inkscape:window-x="-8"
     inkscape:window-y="-8"
     inkscape:window-maximized="1"
     fit-margin-top="0"
     fit-margin-left="0"
     fit-margin-right="0"
     fit-margin-bottom="0" />
  <metadata
     id="metadata5">
    <rdf:RDF>
      <cc:Work
         rdf:about="">
        <dc:format>image/svg+xml</dc:format>
        <dc:type
           rdf:resource="http://purl.org/dc/dcmitype/StillImage" />
        <dc:title></dc:title>
      </cc:Work>
    </rdf:RDF>
  </metadata>
  <g
     inkscape:label="Layer 1"
     inkscape:groupmode="layer"
     id="layer1"
     transform="translate(-71.921777,-70.384897)">
    <g
       id="Layer1000"
       transform="matrix(0.26458333,0,0,0.26458333,-185.3512,-206.32737)">
      <path
         inkscape:connector-curvature="0"
         id="path4747"
         style="fill:#193988;fill-rule:evenodd;stroke-width:0.12181372"
         d="m 1013.296,1302.8859 c -1.8618,0.3379 -3.7054,0.602 -5.549,0.7637 -1.8251,0.1759 -3.6871,0.2641 -5.5892,0.2641 -8.82923,0 -16.0099,-2.1876 -21.52073,-6.5779 -5.51117,-4.3898 -8.26675,-10.1303 -8.26675,-17.2074 0,-6.7393 2.89152,-12.2155 8.69291,-16.4147 5.80338,-4.1995 13.37098,-6.2988 22.68557,-6.2988 1.6304,0 3.2411,0.088 4.8318,0.2641 1.5924,0.1617 3.1643,0.4408 4.7154,0.8077 v 14.7996 c -1.9007,-0.367 -3.5113,-0.646 -4.8317,-0.8073 -1.3186,-0.1763 -2.5027,-0.2642 -3.5313,-0.2642 -3.9397,0 -6.98604,0.7339 -9.17875,2.1874 -2.17314,1.4682 -3.26021,3.4946 -3.26021,6.1077 0,2.5256 1.14443,4.552 3.43428,6.1081 2.28974,1.5416 5.33738,2.3196 9.12128,2.3196 1.0675,0 2.2502,-0.059 3.5509,-0.1762 1.32,-0.1174 2.8719,-0.2787 4.6955,-0.5138 z m 33.2042,-10.586 c 1.7075,0 3.1622,-0.4698 4.4052,-1.3949 1.2223,-0.9395 1.8436,-2.0553 1.8436,-3.3764 0,-1.2925 -0.6213,-2.4229 -1.8436,-3.3773 -1.243,-0.9541 -2.6977,-1.4389 -4.4052,-1.4389 -1.6699,0 -3.1047,0.4699 -4.3466,1.4243 -1.2238,0.9396 -1.8436,2.07 -1.8436,3.3919 0,1.3505 0.6017,2.4812 1.7847,3.391 1.2038,0.9254 2.6587,1.3803 4.4055,1.3803 z m 6.7525,10.9239 v -3.0982 c -1.6875,1.292 -3.6281,2.2611 -5.7637,2.9071 -2.1336,0.646 -4.4626,0.969 -6.9657,0.969 -5.6471,0 -10.2266,-1.4389 -13.7597,-4.3016 -3.5113,-2.8635 -5.2779,-6.5924 -5.2779,-11.1884 0,-4.6979 1.9402,-8.4716 5.8225,-11.3344 3.8809,-2.8482 9.0229,-4.2729 15.4457,-4.2729 1.4369,0 2.8918,0.1617 4.4055,0.4701 1.4944,0.3231 2.9689,0.778 4.4447,1.3801 0.038,-0.1469 0.077,-0.3081 0.097,-0.4993 0.02,-0.1759 0.02,-0.4549 0.02,-0.7928 0,-1.8643 -0.7957,-3.1712 -2.4063,-3.9201 -1.6108,-0.7488 -4.5412,-1.1158 -8.7911,-1.1158 -2.5227,0 -4.8909,0.059 -7.0645,0.1763 -2.1927,0.1173 -4.2496,0.279 -6.1702,0.5137 l 2.3286,-10.4537 c 2.9496,-0.323 5.7052,-0.5581 8.2671,-0.6904 2.5615,-0.1464 5.0058,-0.2201 7.3152,-0.2201 9.5093,0 16.0295,1.1307 19.5608,3.4063 3.5131,2.261 5.2793,6.5336 5.2793,12.818 v 29.2471 z m 26.4511,-0.4407 V 1288.6 c 1.1827,0.3965 2.231,0.6903 3.1625,0.8808 0.9316,0.1911 1.8041,0.2794 2.639,0.2794 1.514,0 2.7359,-0.2794 3.6491,-0.8371 0.912,-0.5578 1.3585,-1.2921 1.3585,-2.1732 0,-1.1743 -1.65,-2.9067 -4.9483,-5.2122 -0.7961,-0.5431 -1.4371,-0.9835 -1.9421,-1.321 -1.7648,-1.2924 -3.1037,-2.6873 -3.9971,-4.1995 -0.892,-1.4973 -1.3386,-3.1128 -1.3386,-4.8303 0,-4.2726 2.0373,-7.6203 6.1132,-10.0428 4.0742,-2.4227 9.7212,-3.6409 16.9608,-3.6409 1.3582,0 2.7934,0.058 4.2878,0.1758 1.494,0.1177 3.1047,0.2791 4.8135,0.5141 v 13.3313 c -1.1463,-0.4255 -2.2516,-0.7484 -3.3576,-0.9396 -1.1068,-0.2052 -2.1546,-0.3085 -3.1832,-0.3085 -1.4744,0 -2.639,0.2351 -3.4921,0.7049 -0.8542,0.4844 -1.2811,1.1158 -1.2811,1.9232 0,0.5141 0.2328,1.0429 0.6793,1.6155 0.4659,0.5576 1.3779,1.3799 2.7945,2.4663 3.745,2.7752 6.2296,5.1242 7.4715,7.0328 1.2222,1.909 1.8435,4.0234 1.8435,6.3428 0,4.1847 -1.8254,7.4293 -5.493,9.7347 -3.6476,2.3051 -8.7899,3.4648 -15.4274,3.4648 -1.2811,0 -2.736,-0.044 -4.3463,-0.1468 -1.6107,-0.1028 -3.9401,-0.3084 -6.9664,-0.6314 z m 63.1076,-10.4832 c 1.7078,0 3.163,-0.4698 4.4045,-1.3949 1.223,-0.9395 1.8435,-2.0553 1.8435,-3.3764 0,-1.2925 -0.6205,-2.4229 -1.8435,-3.3773 -1.2415,-0.9541 -2.6967,-1.4389 -4.4045,-1.4389 -1.6691,0 -3.1061,0.4699 -4.3477,1.4243 -1.2219,0.9396 -1.8436,2.07 -1.8436,3.3919 0,1.3505 0.602,2.4812 1.7863,3.391 1.2022,0.9254 2.6585,1.3803 4.405,1.3803 z m 6.7531,10.9239 v -3.0982 c -1.6895,1.292 -3.6298,2.2611 -5.7632,2.9071 -2.1347,0.646 -4.4634,0.969 -6.9679,0.969 -5.6459,0 -10.2265,-1.4389 -13.7579,-4.3016 -3.512,-2.8635 -5.2783,-6.5924 -5.2783,-11.1884 0,-4.6979 1.9407,-8.4716 5.8211,-11.3344 3.882,-2.8482 9.0244,-4.2729 15.4475,-4.2729 1.4362,0 2.8918,0.1617 4.4054,0.4701 1.4942,0.3231 2.9689,0.778 4.4434,1.3801 0.04,-0.1469 0.077,-0.3081 0.097,-0.4993 0.02,-0.1759 0.02,-0.4549 0.02,-0.7928 0,-1.8643 -0.7953,-3.1712 -2.406,-3.9201 -1.6107,-0.7488 -4.5418,-1.1158 -8.7914,-1.1158 -2.5227,0 -4.8891,0.059 -7.0629,0.1763 -2.1925,0.1173 -4.2497,0.279 -6.1718,0.5137 l 2.329,-10.4537 c 2.9503,-0.323 5.7059,-0.5581 8.2664,-0.6904 2.5623,-0.1464 5.0075,-0.2201 7.317,-0.2201 9.5083,0 16.0292,1.1307 19.5611,3.4063 3.5113,2.261 5.278,6.5336 5.278,12.818 v 29.2471 z m 27.3618,0 v -45.2952 h 19.3276 v 4.3462 c 1.8239,-1.6739 3.9597,-2.9219 6.4231,-3.7736 2.4653,-0.8371 5.2602,-1.2626 8.3652,-1.2626 5.686,0 9.9934,1.3065 12.924,3.9055 2.9297,2.6133 4.4041,6.4457 4.4041,11.4817 v 30.598 h -19.6771 v -24.05 c 0,-2.584 -0.4261,-4.3753 -1.2811,-5.3734 -0.8528,-1.0129 -2.308,-1.5122 -4.3844,-1.5122 -2.0962,0 -3.6872,0.6017 -4.774,1.7912 -1.106,1.1893 -1.6503,2.9068 -1.6503,5.1827 v 23.9617 z" />
      <g
         id="Layer1001"
         transform="matrix(0.12181372,0,0,0.12181372,955.17216,969.6416)">
        <path
           inkscape:connector-curvature="0"
           id="path4749"
           style="fill:#ffffff;fill-rule:evenodd"
           d="m 1465.5622,786.254 563.1393,975.0675 c 5.5986,9.333 10.7409,18.9882 15.3761,28.9268 l 4.7963,9.16 -0.036,0.06 c -0.3997,0.5995 22.1887,56.2638 24.1484,110.0937 6.2638,172.5318 -128.1573,318.8302 -300.6593,325.7353 -4.1878,0.1641 -8.3606,0.2237 -12.5216,0.2237 l -0.021,0.03 -1135.5966,0.027 -0.0388,-0.057 c -166.9838,0.042 -306.4368,-132.5896 -313.1719,-300.88 -1.8523,-46.1582 6.4815,-90.4432 22.9643,-130.6837 7.1407,-14.5857 13.6222,-29.8335 22.0485,-43.7272 L 916.7015,789.4844 c 51.1215,-93.6587 148.7443,-159.1214 262.7484,-163.685 121.6161,-4.8708 230.2065,60.8275 286.1123,160.4546 z" />
        <path
           inkscape:connector-curvature="0"
           id="path4751"
           style="fill:#00a894;fill-rule:evenodd"
           d="m 1286.1492,1525.4984 c 141.7408,-5.6732 262.984,99.7286 279.3803,238.3286 l -195.7019,0.033 c -12.3248,-28.0231 -40.3687,-47.6735 -72.854,-47.6735 -43.8048,0 -79.5353,35.7305 -79.5353,79.5353 0,43.8078 35.7305,79.5383 79.5353,79.5383 32.4316,0 60.4427,-19.5997 72.7973,-47.5571 h 195.7407 c -15.4209,129.5085 -123.3998,232.8701 -257.7165,238.248 -148.8368,5.9566 -275.0881,-110.5769 -281.0447,-259.4107 -5.9655,-148.8368 110.574,-275.0851 259.3988,-281.0417 z" />
        <path
           inkscape:connector-curvature="0"
           id="path4753"
           style="fill:#193988;fill-rule:evenodd"
           d="m 1426.0944,803.8404 554.4683,959.912 -372.6601,0.066 c -3.5048,-34.2629 -12.5545,-66.8108 -26.1917,-96.8174 l 0.036,-0.078 -269.7847,-633.762 c -2.2758,-6.3771 -8.5158,-10.8513 -15.6237,-10.5679 -6.4726,0.2595 -11.9012,4.3936 -14.1413,10.0668 h -0.015 l -271.9681,638.949 c -0.1461,0.3431 -0.2893,0.6891 -0.4355,1.0351 l -3.7553,8.82 0.078,0.089 c -15.4597,39.1547 -23.2268,82.0259 -21.449,126.6718 6.9021,172.0129 152.8068,306.6964 324.8226,299.8092 156.9528,-6.2846 282.8074,-128.3332 298.4103,-280.3347 h 405.2915 c 9.7954,26.1409 15.6595,54.2385 16.8317,83.5799 5.9655,148.8368 -110.5649,275.0881 -259.3987,281.0447 -3.6122,0.1431 -7.2123,0.1909 -10.8036,0.1909 l -0.018,0.03 H 624.1706 l -0.4414,-0.027 c -143.8884,-0.185 -263.9743,-114.538 -269.7818,-259.6016 -2.1237,-52.9559 11.2778,-103.0574 36.1153,-145.8898 l -0.0716,-0.1283 567.8371,-983.094 h 0.0925 c 44.9681,-77.4921 127.3877,-131.2027 223.2208,-135.0385 103.5465,-4.1461 196.1404,51.0112 244.9294,135.0743 z" />
      </g>
    </g>
  </g>
</svg>
