<?xml version="1.0" encoding="UTF-8" standalone="no"?>
<!-- Created with Inkscape (http://www.inkscape.org/) -->

<svg
   xmlns:dc="http://purl.org/dc/elements/1.1/"
   xmlns:cc="http://creativecommons.org/ns#"
   xmlns:rdf="http://www.w3.org/1999/02/22-rdf-syntax-ns#"
   xmlns:svg="http://www.w3.org/2000/svg"
   xmlns="http://www.w3.org/2000/svg"
   xmlns:sodipodi="http://sodipodi.sourceforge.net/DTD/sodipodi-0.dtd"
   xmlns:inkscape="http://www.inkscape.org/namespaces/inkscape"
   width="67.73333mm"
   height="73.918236mm"
   viewBox="0 0 67.73333 73.918236"
   version="1.1"
   id="svg8"
   inkscape:version="0.92.2 (5c3e80d, 2017-08-06)"
   sodipodi:docname="celesc.svg">
  <defs
     id="defs2">
    <linearGradient
       id="grad1"
       gradientTransform="matrix(1.0030091,0,0,1.0030059,-0.5068711,-1.6010754)"
       x1="199.85919"
       y1="253.8287"
       x2="392.4472"
       y2="253.8287"
       gradientUnits="userSpaceOnUse">
      <stop
         id="stop4771"
         stop-opacity="1.0000"
         stop-color="#e18700"
         offset="0.0000%" />
      <stop
         id="stop4773"
         stop-opacity="1.0000"
         stop-color="#ffcb00"
         offset="66.0000%" />
      <stop
         id="stop4775"
         stop-opacity="1.0000"
         stop-color="#ffdc92"
         offset="100.0000%" />
    </linearGradient>
  </defs>
  <sodipodi:namedview
     id="base"
     pagecolor="#ffffff"
     bordercolor="#666666"
     borderopacity="1.0"
     inkscape:pageopacity="0.0"
     inkscape:pageshadow="2"
     inkscape:zoom="3.3574823"
     inkscape:cx="127.99999"
     inkscape:cy="139.688"
     inkscape:document-units="mm"
     inkscape:current-layer="Layer1000-6"
     showgrid="false"
     inkscape:window-width="1920"
     inkscape:window-height="1137"
     inkscape:window-x="-8"
     inkscape:window-y="-8"
     inkscape:window-maximized="1"
     fit-margin-top="0"
     fit-margin-left="0"
     fit-margin-right="0"
     fit-margin-bottom="0" />
  <metadata
     id="metadata5">
    <rdf:RDF>
      <cc:Work
         rdf:about="">
        <dc:format>image/svg+xml</dc:format>
        <dc:type
           rdf:resource="http://purl.org/dc/dcmitype/StillImage" />
        <dc:title></dc:title>
      </cc:Work>
    </rdf:RDF>
  </metadata>
  <g
     inkscape:label="Layer 1"
     inkscape:groupmode="layer"
     id="layer1"
     transform="translate(41.710503,-30.292362)">
    <g
       id="Layer1000"
       transform="matrix(0.26458333,0,0,0.26458333,-185.3512,-206.32737)">
      <g
         id="Layer1000-6"
         transform="translate(374.35648,641.32021)">
        <defs
           id="defs4778">
          <linearGradient
             id="linearGradient4815">
            <stop
               id="stop4809"
               stop-opacity="1.0000"
               stop-color="#e18700"
               offset="0.0000%" />
            <stop
               id="stop4811"
               stop-opacity="1.0000"
               stop-color="#ffcb00"
               offset="66.0000%" />
            <stop
               id="stop4813"
               stop-opacity="1.0000"
               stop-color="#ffdc92"
               offset="100.0000%" />
          </linearGradient>
        </defs>
        <path
           inkscape:connector-curvature="0"
           id="path4780"
           style="fill:url(#grad1);stroke-width:1.00300741"
           d="m 331.37947,399.36019 -5.80821,-5.94513 c 3.57452,-3.62407 7.09668,-7.29929 10.56508,-11.02566 1.8349,2.08234 3.66188,4.17151 5.47973,6.2688 -3.35857,3.61865 -6.7709,7.18625 -10.2366,10.70199 z m -27.50276,-9.06649 7.15264,6.77472 c -3.74723,3.61172 -7.54452,7.1713 -11.39085,10.67751 -2.49217,-2.14312 -4.97492,-4.29738 -7.44954,-6.46127 3.94443,-3.61173 7.84031,-7.27572 11.68775,-10.99096 z m 20.60548,-20.945 c 2.20331,2.43681 4.4002,4.88053 6.58806,7.33118 -3.55847,3.81273 -7.1702,7.57592 -10.83369,11.28795 l -6.89999,-7.02948 c 3.7664,-3.81384 7.48164,-7.67722 11.14562,-11.58965 z m 24.99395,-13.47791 c -3.2002,3.81273 -6.45265,7.58073 -9.75686,11.30439 -2.09558,-2.5349 -4.20611,-5.05746 -6.32787,-7.5705 3.4038,-3.81383 6.75866,-7.6714 10.06177,-11.5732 2.02687,2.59889 4.0356,5.21062 6.02296,7.83931 z m 9.48012,12.98583 c -3.00772,3.6352 -6.0699,7.22517 -9.18374,10.7697 -1.72136,-2.18937 -3.45927,-4.36499 -5.21002,-6.53049 3.21785,-3.64372 6.38394,-7.33228 9.49668,-11.06668 1.65426,2.26038 3.28826,4.5351 4.89708,6.82747 z m 7.21132,10.75906 c -2.82065,3.44754 -5.69567,6.85095 -8.62295,10.20841 -1.31143,-1.78375 -2.64152,-3.55365 -3.98545,-5.31403 3.02908,-3.46088 6.00591,-6.96649 8.92787,-10.51804 1.25015,1.85948 2.47893,3.73219 3.68053,5.62366 z m 25.6108,-46.17996 c 0.50531,3.0024 0.87161,6.05174 1.09277,9.1411 0.1658,2.31103 0.25005,4.64443 0.25005,6.99698 l -0.002,0.45687 c -0.0133,2.91444 -0.15567,5.79799 -0.42167,8.64583 -4.69608,7.22617 -9.66618,14.28232 -14.87139,21.17268 -0.73249,-1.56409 -1.5012,-3.11012 -2.29719,-4.64282 6.19518,-8.16658 12.08283,-16.55544 17.59025,-25.17569 l 0.002,-0.45687 c 0,-2.35255 -0.0842,-4.68595 -0.25005,-6.99698 -6.1381,9.69177 -12.74481,19.09947 -19.71672,28.23838 -1.11043,-1.97834 -2.25606,-3.93641 -3.42898,-5.87843 7.81905,-10.1732 15.22014,-20.66526 22.05293,-31.50105 z M 253.29705,435.96143 c -20.96055,-10.51222 -37.56564,-28.42824 -46.38308,-50.31797 15.81492,13.374 31.98501,26.32563 48.7255,38.52893 -0.74955,3.91985 -1.52036,7.85525 -2.34242,11.78904 z m 29.73857,9.25997 c -6.69738,-0.93671 -13.17461,-2.56048 -19.35805,-4.79739 1.52949,-6.06408 2.88415,-12.14301 4.19177,-18.12705 4.90722,-4.0031 9.74623,-8.08875 14.51904,-12.25123 3.0025,2.45175 6.02035,4.88374 9.05856,7.29066 -2.45657,9.2376 -5.11835,18.6783 -8.41132,27.88501 z m 26.19504,0.10933 c -4.15395,0.54533 -8.39046,0.82678 -12.69316,0.82678 -1.59558,0 -3.18214,-0.0389 -4.75847,-0.11515 4.07663,-9.90771 7.33068,-20.18753 10.27662,-30.28661 4.92747,-4.39538 9.76959,-8.88364 14.52806,-13.46137 2.47522,2.32116 4.95576,4.63641 7.44372,6.94423 -4.09689,12.21231 -8.78554,24.53707 -14.79677,36.09212 z m 21.66105,-5.46118 c -4.61935,1.75817 -9.40821,3.17251 -14.33568,4.21103 6.78053,-12.0055 12.07049,-24.93637 16.63808,-37.84658 4.22588,-4.22377 8.3703,-8.52797 12.43088,-12.91172 1.74222,2.04604 3.47261,4.1017 5.18605,6.17171 -5.41955,13.99075 -11.80981,27.76084 -19.91933,40.37556 z m 18.42876,-9.39697 c -3.87673,2.5344 -7.94693,4.79788 -12.18353,6.76348 8.55685,-12.76358 15.34962,-26.74149 21.08101,-41.03986 3.59096,-4.06489 7.10149,-8.19959 10.52766,-12.40419 1.06359,1.77843 2.09569,3.57552 3.08034,5.39878 -6.14994,14.48865 -13.46828,28.48943 -22.50548,41.28179 z m 42.42431,-64.55818 c -4.18114,24.53607 -17.61643,45.91778 -36.58741,60.42669 8.94021,-12.60841 16.25223,-26.31982 22.40318,-40.56383 4.95515,-6.46649 9.69336,-13.08604 14.18423,-19.86286 z m -4.41143,-49.34927 c 1.09709,3.01735 2.04814,6.10511 2.84463,9.25465 -7.34934,11.63338 -15.33518,22.8802 -23.77108,33.77477 -1.51554,-2.37612 -3.06368,-4.73128 -4.6364,-7.0695 9.06648,-11.59175 17.66226,-23.56154 25.56285,-35.95992 z m -7.86699,-16.52936 c 1.71875,2.87131 3.29247,5.8385 4.71103,8.89266 -8.28816,12.84411 -17.29496,25.23918 -26.77238,37.24578 -1.89629,-2.7028 -3.81975,-5.38645 -5.76659,-8.05365 9.81172,-12.28694 19.1778,-24.95763 27.82794,-38.08479 z M 281.7972,254.10796 c 4.80591,-0.73621 9.72857,-1.11736 14.7403,-1.11736 32.02553,0 60.41004,15.58684 77.98163,39.58811 -8.85325,13.14371 -18.37871,25.84329 -28.3477,38.17767 C 326.01218,304.1471 304.2067,278.8364 281.7972,254.10796 Z m -33.74107,11.91322 c 5.43329,-3.15968 11.20259,-5.80441 17.2416,-7.86749 25.03547,26.77508 49.49962,54.11044 72.46879,82.68573 -3.39046,3.97271 -6.83118,7.90219 -10.31974,11.78955 -25.57238,-29.67037 -52.28407,-58.33843 -79.39065,-86.60779 z m -26.32142,22.44951 c 4.01634,-4.91042 8.5062,-9.41834 13.40058,-13.45394 28.11952,28.80778 56.00342,57.85437 83.18372,87.55242 -3.75205,3.99408 -7.55405,7.94011 -11.4058,11.8381 -27.90577,-28.34028 -57.0984,-57.73552 -85.1785,-85.93658 z m -17.18132,31.56705 c 2.07482,-6.46759 4.81283,-12.63769 8.13399,-18.43146 27.67709,27.31941 56.51586,55.56531 84.55644,82.36908 -3.92998,3.80109 -7.90691,7.55254 -11.93077,11.25334 -27.49906,-24.43316 -54.27414,-49.66703 -80.75966,-75.19096 z m -4.59969,29.53606 c 0,-4.08093 0.25326,-8.10319 0.74423,-12.05083 24.31431,22.8461 49.03473,45.27104 74.62265,66.68575 -3.89808,3.42367 -7.8382,6.79869 -11.82104,10.12366 -21.62153,-16.88072 -42.4557,-34.73375 -62.84634,-53.07725 -0.46169,-3.82928 -0.6995,-7.72787 -0.6995,-11.68133 z" />
        <path
           inkscape:connector-curvature="0"
           id="path4782"
           style="fill:#006bb4;fill-rule:evenodd;stroke-width:1.00300741"
           d="m 224.25898,479.84271 c -1.25978,-15.89285 -15.21422,-19.86607 -25.09906,-19.86607 -24.90488,0 -30.62242,21.99786 -30.62242,36.72803 0,13.56698 4.74834,35.27437 29.36274,35.27437 12.01663,0 24.7114,-5.71805 26.16516,-19.47851 h -10.65987 c -0.29057,1.64724 -0.87221,4.65125 -3.39156,7.36479 -3.00461,3.10109 -7.07482,4.16729 -11.3386,4.16729 -15.98935,0 -19.76908,-14.24561 -19.76908,-27.42493 0,-11.62907 3.00411,-28.87869 19.86607,-28.87869 13.47049,0 14.73017,9.69075 15.11773,12.11372 z" />
        <path
           inkscape:connector-curvature="0"
           id="path4784"
           style="fill:#006bb4;fill-rule:evenodd;stroke-width:1.00300741"
           d="m 271.97054,508.23625 c 0.19348,-7.94643 0.67813,-27.23085 -21.12635,-27.23085 -2.80992,0 -8.62446,0.29047 -13.27631,3.58565 -7.65535,5.32988 -9.59326,13.27631 -9.59326,22.87007 0,15.4082 7.26779,24.90548 22.5791,24.90548 9.78775,0 14.63308,-4.0703 16.76497,-6.49327 3.48866,-3.77913 3.87622,-7.75234 4.1673,-10.17531 h -9.10972 c -0.77512,6.97782 -5.52346,10.07882 -11.43499,10.07882 -9.98132,0 -14.14852,-7.46177 -13.95454,-17.54059 z m -34.59624,-6.39568 c 0.19358,-10.75695 7.36479,-14.34261 13.27641,-14.34261 11.24101,0 12.11372,9.69076 12.01663,14.34261 z" />
        <path
           inkscape:connector-curvature="0"
           id="path4786"
           style="fill:#006bb4;fill-rule:evenodd;stroke-width:1.00300741"
           d="m 277.64164,530.91284 v -63.31665 h 9.10972 v 63.31665 z" />
        <path
           inkscape:connector-curvature="0"
           id="path4788"
           style="fill:#006bb4;fill-rule:evenodd;stroke-width:1.00300741"
           d="m 335.76211,508.23625 c 0.19399,-7.94643 0.67804,-27.23085 -21.12584,-27.23085 -2.81053,0 -8.62446,0.29047 -13.27631,3.58565 -7.65595,5.32988 -9.59376,13.27631 -9.59376,22.87007 0,15.4082 7.26779,24.90548 22.5796,24.90548 9.78715,0 14.63257,-4.0703 16.76497,-6.49327 3.48866,-3.77913 3.87622,-7.75234 4.16669,-10.17531 h -9.10911 c -0.77563,6.97782 -5.52397,10.07882 -11.43499,10.07882 -9.98183,0 -14.14852,-7.46177 -13.95454,-17.54059 z m -34.59573,-6.39568 c 0.19358,-10.75695 7.36488,-14.34261 13.27591,-14.34261 11.24151,0 12.11362,9.69076 12.01663,14.34261 z" />
        <path
           inkscape:connector-curvature="0"
           id="path4790"
           style="fill:#006bb4;fill-rule:evenodd;stroke-width:1.00300741"
           d="m 339.60203,516.47314 c -0.097,11.72616 9.10911,15.79637 18.99385,15.79637 5.03891,0 10.17541,-0.67864 14.4391,-3.29508 3.58565,-2.22888 6.58965,-6.88023 6.58965,-12.3072 0,-3.101 -0.9691,-6.49267 -3.68264,-9.01213 -2.90701,-2.71343 -5.81403,-3.48856 -19.28442,-6.68665 -2.51946,-0.67863 -6.88023,-1.74433 -6.88023,-6.20209 0,-6.97732 8.52807,-6.97732 9.88484,-6.97732 3.29448,0 9.69015,0.58164 9.39958,7.94642 h 9.3032 c 0,-2.0353 0,-4.36127 -1.25968,-7.07421 -2.90762,-5.81453 -11.43509,-7.55886 -17.54019,-7.55886 -11.24151,0 -18.99386,5.81453 -18.99386,14.72956 0,10.17541 8.52747,12.21072 18.70278,14.53669 7.2683,1.64724 10.65997,2.51945 10.65997,7.26779 0,1.64724 -0.58165,3.29458 -1.55025,4.55486 -1.93841,2.42236 -4.74894,3.101 -8.52807,3.101 -8.81854,0 -10.75696,-5.1364 -10.65997,-8.81915 z" />
        <path
           inkscape:connector-curvature="0"
           id="path4792"
           style="fill:#006bb4;fill-rule:evenodd;stroke-width:1.00300741"
           d="m 424.14994,497.86736 c -0.19408,-2.71344 -0.48465,-6.68665 -4.0703,-10.85345 -4.45777,-5.32988 -11.72556,-6.00851 -14.92365,-6.00851 -9.69076,0 -22.09495,6.00851 -22.09495,26.26214 0,10.07832 2.90701,15.21422 5.81453,18.60579 5.1359,5.62055 12.69477,6.29919 15.98995,6.29919 12.01603,0 19.09034,-7.94643 19.67198,-17.44361 h -9.2062 c -0.19398,4.74884 -2.81053,10.56338 -10.56287,10.56338 -9.69076,0 -12.11363,-9.3032 -12.11363,-19.28493 0,-3.68214 0,-18.31531 12.59828,-18.31531 8.81854,0 9.49668,7.94642 9.69066,10.17531 z" />
      </g>
    </g>
  </g>
</svg>
