<?xml version="1.0" encoding="UTF-8" standalone="no"?>
<!-- Created with Inkscape (http://www.inkscape.org/) -->

<svg
   xmlns:dc="http://purl.org/dc/elements/1.1/"
   xmlns:cc="http://creativecommons.org/ns#"
   xmlns:rdf="http://www.w3.org/1999/02/22-rdf-syntax-ns#"
   xmlns:svg="http://www.w3.org/2000/svg"
   xmlns="http://www.w3.org/2000/svg"
   xmlns:sodipodi="http://sodipodi.sourceforge.net/DTD/sodipodi-0.dtd"
   xmlns:inkscape="http://www.inkscape.org/namespaces/inkscape"
   width="32.588726mm"
   height="8.4666672mm"
   viewBox="0 0 32.588726 8.4666672"
   version="1.1"
   id="svg8"
   inkscape:version="0.92.2 (5c3e80d, 2017-08-06)"
   sodipodi:docname="kastello-logo-alt.svg">
  <defs
     id="defs2" />
  <sodipodi:namedview
     id="base"
     pagecolor="#ffffff"
     bordercolor="#666666"
     borderopacity="1.0"
     inkscape:pageopacity="0.0"
     inkscape:pageshadow="2"
     inkscape:zoom="7.9741123"
     inkscape:cx="71.814441"
     inkscape:cy="6.8700292"
     inkscape:document-units="mm"
     inkscape:current-layer="layer1"
     showgrid="false"
     showguides="true"
     inkscape:guide-bbox="true"
     inkscape:snap-page="true"
     inkscape:window-width="1920"
     inkscape:window-height="1137"
     inkscape:window-x="-8"
     inkscape:window-y="-8"
     inkscape:window-maximized="1"
     fit-margin-top="0"
     fit-margin-left="0"
     fit-margin-right="0"
     fit-margin-bottom="0" />
  <metadata
     id="metadata5">
    <rdf:RDF>
      <cc:Work
         rdf:about="">
        <dc:format>image/svg+xml</dc:format>
        <dc:type
           rdf:resource="http://purl.org/dc/dcmitype/StillImage" />
        <dc:title></dc:title>
      </cc:Work>
    </rdf:RDF>
  </metadata>
  <g
     inkscape:label="Layer 1"
     inkscape:groupmode="layer"
     id="layer1"
     transform="translate(-217.45204,-161.40657)">
    <g
       id="g13170">
      <g
         id="g8548-7-5"
         transform="matrix(0.20000002,0,0,0.20000002,212.58446,157.65727)">
        <path
           inkscape:connector-curvature="0"
           d="m 52.446255,31.02984 h -4.49167 c -0.649999,0 -1.175001,0.525 -1.175001,1.175 v 3.15834 h -3.300001 v -3.15834 c 0,-0.65 -0.524999,-1.175 -1.174999,-1.175 h -2.15 v -4.54166 h 6.858335 c 0.649999,0 1.174998,-0.53334 1.174998,-1.17501 V 19.9215 c 0,-0.65001 -0.524999,-1.17499 -1.174998,-1.17499 h -8.033337 c -0.650001,0 -1.175,0.52498 -1.175,1.17499 v 11.10834 h -2.158333 c -0.650001,0 -1.175001,0.525 -1.175001,1.175 v 3.15834 h -3.300001 v -3.15834 c 0,-0.65 -0.524999,-1.175 -1.174999,-1.175 h -4.483335 c -0.65,0 -1.175,0.525 -1.175,1.175 v 9.89166 c 0,0.65001 0.525,1.17501 1.175,1.17501 h 3.200001 v 16.63333 c 0,0.65 0.525,1.175 1.175,1.175 H 48.07125 c 0.65,0 1.175002,-0.525 1.175002,-1.175 V 43.27151 h 3.200003 c 0.649999,0 1.174998,-0.525 1.174998,-1.17501 v -9.89166 c 0.0083,-0.65 -0.524999,-1.175 -1.174998,-1.175 z M 40.154584,21.09651 h 5.683334 v 3.04166 h -5.683334 z m 1.674998,37.63334 H 36.137915 V 50.4215 h 5.691667 z m 5.06667,0 h -2.716669 v -9.48334 c 0,-0.65 -0.524998,-1.17501 -1.174999,-1.17501 h -8.041668 c -0.650001,0 -1.175001,0.52501 -1.175001,1.17501 v 9.48334 h -2.725 V 43.27151 H 46.896252 Z M 51.27125,40.92151 H 26.687913 v -7.53333 h 2.141667 v 3.15833 c 0,0.64999 0.525001,1.175 1.175002,1.175 h 5.641667 c 0.65,0 1.175002,-0.52501 1.175002,-1.175 v -3.15833 h 4.308331 v 3.15833 c 0,0.64999 0.525002,1.175 1.175002,1.175 h 5.650001 c 0.650001,0 1.174999,-0.52501 1.174999,-1.175 v -3.15833 h 2.141666 z"
           id="path4747-2-0"
           style="fill:#4ebec0;fill-opacity:1;stroke-width:0.08333337" />
        <text
           xml:space="preserve"
           style="font-style:normal;font-variant:normal;font-weight:normal;font-stretch:normal;font-size:34.14408875px;line-height:125%;font-family:Arial;-inkscape-font-specification:Arial;letter-spacing:0px;word-spacing:0px;fill:#f4faff;fill-opacity:1;stroke:none;stroke-width:0.85360211px;stroke-linecap:butt;stroke-linejoin:miter;stroke-opacity:1"
           x="64.660362"
           y="56.979198"
           id="text4771-7-7"><tspan
             sodipodi:role="line"
             id="tspan4769-4-7"
             x="64.660362"
             y="56.979198"
             style="font-style:normal;font-variant:normal;font-weight:normal;font-stretch:normal;font-family:Arvo;-inkscape-font-specification:Arvo;letter-spacing:-0.60854167px;fill:#f4faff;fill-opacity:1;stroke-width:0.85360211px"
             dx="-3.1599991">kastello</tspan></text>
      </g>
    </g>
  </g>
</svg>
